<?xml version="1.0" encoding="UTF-8" standalone="no"?>
<!-- Created with Inkscape (http://www.inkscape.org/) -->

<svg
   version="1.1"
   id="svg1"
   width="525.53333"
   height="436.48749"
   viewBox="0 0 525.53333 436.48749"
   sodipodi:docname="lorenz_inat_pnet_cursed.svg"
   inkscape:version="1.3.2 (091e20ef0f, 2023-11-25, custom)"
   inkscape:export-filename="lorenz_inat_pnet_cursed.pdf"
   inkscape:export-xdpi="100"
   inkscape:export-ydpi="100"
   xmlns:inkscape="http://www.inkscape.org/namespaces/inkscape"
   xmlns:sodipodi="http://sodipodi.sourceforge.net/DTD/sodipodi-0.dtd"
   xmlns="http://www.w3.org/2000/svg"
   xmlns:svg="http://www.w3.org/2000/svg">
  <defs
     id="defs1">
    <clipPath
       clipPathUnits="userSpaceOnUse"
       id="clipPath16">
      <path
         d="M 63.778125,42.965625 H 342.77812 V 320.16562 H 63.778125 Z"
         id="path16" />
    </clipPath>
    <clipPath
       clipPathUnits="userSpaceOnUse"
       id="clipPath18">
      <path
         d="M 63.778125,42.965625 H 342.77812 V 320.16562 H 63.778125 Z"
         id="path18" />
    </clipPath>
    <clipPath
       clipPathUnits="userSpaceOnUse"
       id="clipPath20">
      <path
         d="M 63.778125,42.965625 H 342.77812 V 320.16562 H 63.778125 Z"
         id="path20" />
    </clipPath>
    <clipPath
       clipPathUnits="userSpaceOnUse"
       id="clipPath22">
      <path
         d="M 63.778125,42.965625 H 342.77812 V 320.16562 H 63.778125 Z"
         id="path22" />
    </clipPath>
    <clipPath
       clipPathUnits="userSpaceOnUse"
       id="clipPath24">
      <path
         d="M 63.778125,42.965625 H 342.77812 V 320.16562 H 63.778125 Z"
         id="path24" />
    </clipPath>
    <clipPath
       clipPathUnits="userSpaceOnUse"
       id="clipPath26">
      <path
         d="M 63.778125,42.965625 H 342.77812 V 320.16562 H 63.778125 Z"
         id="path26" />
    </clipPath>
  </defs>
  <sodipodi:namedview
     id="namedview1"
     pagecolor="#ffffff"
     bordercolor="#000000"
     borderopacity="0.25"
     inkscape:showpageshadow="2"
     inkscape:pageopacity="0.0"
     inkscape:pagecheckerboard="0"
     inkscape:deskcolor="#d1d1d1"
     inkscape:zoom="0.63610082"
     inkscape:cx="85.678242"
     inkscape:cy="180.78895"
     inkscape:window-width="1916"
     inkscape:window-height="1052"
     inkscape:window-x="0"
     inkscape:window-y="0"
     inkscape:window-maximized="1"
     inkscape:current-layer="g1"
     showguides="false">
    <inkscape:page
       x="0"
       y="0"
       inkscape:label="1"
       id="page1"
       width="525.53333"
       height="436.48749"
       margin="0"
       bleed="0"
       inkscape:export-filename="lorenz_inat_pnet_cursed.pdf"
       inkscape:export-xdpi="100"
       inkscape:export-ydpi="100" />
  </sodipodi:namedview>
  <g
     id="g1"
     inkscape:groupmode="layer"
     inkscape:label="1">
    <path
       id="path1"
       d="M 0,0 H 394.15 V 327.36563 H 0 Z"
       style="fill:#ffffff;fill-opacity:1;fill-rule:nonzero;stroke:none"
       transform="matrix(1.3333333,0,0,-1.3333333,0,436.4875)" />
    <path
       id="path2"
       d="M 63.778125,42.965625 H 342.77812 V 320.16563 c -81.08356,-82.80745 -179.10793,-47.89307 -278.999995,0 z"
       style="fill:#ffffff;fill-opacity:1;fill-rule:nonzero;stroke:none"
       transform="matrix(1.3333333,0,0,-1.3333333,0,436.4875)"
       sodipodi:nodetypes="ccccc" />
    <text
       id="text2"
       xml:space="preserve"
       transform="matrix(1.3333333,0,0,1.3333333,90.311174,403.0125)"><tspan
         style="font-variant:normal;font-weight:normal;font-size:11px;font-family:'DejaVu Sans';writing-mode:lr-tb;fill:#262626;fill-opacity:1;fill-rule:nonzero;stroke:none"
         x="0 6.9959998"
         y="0"
         sodipodi:role="line"
         id="tspan2">0%</tspan></text>
    <text
       id="text3"
       xml:space="preserve"
       transform="matrix(1.3333333,0,0,1.3333333,153.28087,403.0125)"><tspan
         style="font-variant:normal;font-weight:normal;font-size:11px;font-family:'DejaVu Sans';writing-mode:lr-tb;fill:#262626;fill-opacity:1;fill-rule:nonzero;stroke:none"
         x="0 6.9959998 13.992"
         y="0"
         sodipodi:role="line"
         id="tspan3">20%</tspan></text>
    <text
       id="text4"
       xml:space="preserve"
       transform="matrix(1.3333333,0,0,1.3333333,220.91723,403.0125)"><tspan
         style="font-variant:normal;font-weight:normal;font-size:11px;font-family:'DejaVu Sans';writing-mode:lr-tb;fill:#262626;fill-opacity:1;fill-rule:nonzero;stroke:none"
         x="0 6.9959998 13.992"
         y="0"
         sodipodi:role="line"
         id="tspan4">40%</tspan></text>
    <text
       id="text5"
       xml:space="preserve"
       transform="matrix(1.3333333,0,0,1.3333333,288.5536,403.0125)"><tspan
         style="font-variant:normal;font-weight:normal;font-size:11px;font-family:'DejaVu Sans';writing-mode:lr-tb;fill:#262626;fill-opacity:1;fill-rule:nonzero;stroke:none"
         x="0 6.9959998 13.992"
         y="0"
         sodipodi:role="line"
         id="tspan5">60%</tspan></text>
    <text
       id="text6"
       xml:space="preserve"
       transform="matrix(1.3333333,0,0,1.3333333,356.18996,403.0125)"><tspan
         style="font-variant:normal;font-weight:normal;font-size:11px;font-family:'DejaVu Sans';writing-mode:lr-tb;fill:#262626;fill-opacity:1;fill-rule:nonzero;stroke:none"
         x="0 6.9959998 13.992"
         y="0"
         sodipodi:role="line"
         id="tspan6">80%</tspan></text>
    <text
       id="text7"
       xml:space="preserve"
       transform="matrix(1.3333333,0,0,1.3333333,419.15966,403.0125)"><tspan
         style="font-variant:normal;font-weight:normal;font-size:11px;font-family:'DejaVu Sans';writing-mode:lr-tb;fill:#262626;fill-opacity:1;fill-rule:nonzero;stroke:none"
         x="0 6.9959998 13.992 20.988001"
         y="0"
         sodipodi:role="line"
         id="tspan7">100%</tspan></text>
    <text
       id="text8"
       xml:space="preserve"
       transform="matrix(1.3333333,0,0,1.3333333,26.141667,423.55417)"><tspan
         style="font-variant:normal;font-weight:normal;font-size:12px;font-family:'DejaVu Sans';writing-mode:lr-tb;fill:#262626;fill-opacity:1;fill-rule:nonzero;stroke:none"
         x="0 8.3760004 15.984 27.672001 35.279999 38.616001 45.972 50.675999 54.012001 61.116001 68.496002 72.311996 78.564003 86.171997 93.528 98.209999 105.59 109.406 116.75 120.974 124.79 131.04201 138.662 146.04201 152.642 155.978 163.358 169.61 173.42599 177.242 181.466 186.14799 193.492 205.17999 208.996 213.7 221.308 228.688 232.504 238.756 250.444 257.79999 261.13599 264.47198 271.85199 278.104 282.80801 286.62399 291.328 298.672 302.48801 307.19199 314.79999 322.17999 325.996 329.332 336.68799 341.41687 349.03687 356.41687 362.66888"
         y="0"
         sodipodi:role="line"
         id="tspan8">Cumulative share of species, from the smallest to the largest</tspan></text>
    <text
       id="text9"
       xml:space="preserve"
       transform="matrix(1.3333333,0,0,1.3333333,49.1,367.97292)"><tspan
         style="font-variant:normal;font-weight:normal;font-size:11px;font-family:'DejaVu Sans';writing-mode:lr-tb;fill:#262626;fill-opacity:1;fill-rule:nonzero;stroke:none"
         x="0 6.9959998"
         y="0"
         sodipodi:role="line"
         id="tspan9">0%</tspan></text>
    <text
       id="text10"
       xml:space="preserve"
       transform="matrix(1.3333333,0,0,1.3333333,39.766667,300.77292)"><tspan
         style="font-variant:normal;font-weight:normal;font-size:11px;font-family:'DejaVu Sans';writing-mode:lr-tb;fill:#262626;fill-opacity:1;fill-rule:nonzero;stroke:none"
         x="0 6.9959998 13.992"
         y="0"
         sodipodi:role="line"
         id="tspan10">20%</tspan></text>
    <text
       id="text11"
       xml:space="preserve"
       transform="matrix(1.3333333,0,0,1.3333333,39.766667,233.57292)"><tspan
         style="font-variant:normal;font-weight:normal;font-size:11px;font-family:'DejaVu Sans';writing-mode:lr-tb;fill:#262626;fill-opacity:1;fill-rule:nonzero;stroke:none"
         x="0 6.9959998 13.992"
         y="0"
         sodipodi:role="line"
         id="tspan11">40%</tspan></text>
    <text
       id="text12"
       xml:space="preserve"
       transform="matrix(1.3333333,0,0,1.3333333,39.766667,166.37292)"><tspan
         style="font-variant:normal;font-weight:normal;font-size:11px;font-family:'DejaVu Sans';writing-mode:lr-tb;fill:#262626;fill-opacity:1;fill-rule:nonzero;stroke:none"
         x="0 6.9959998 13.992"
         y="0"
         sodipodi:role="line"
         id="tspan12">60%</tspan></text>
    <text
       id="text13"
       xml:space="preserve"
       transform="matrix(1.3333333,0,0,1.3333333,39.766667,99.172917)"><tspan
         style="font-variant:normal;font-weight:normal;font-size:11px;font-family:'DejaVu Sans';writing-mode:lr-tb;fill:#262626;fill-opacity:1;fill-rule:nonzero;stroke:none"
         x="0 6.9959998 13.992"
         y="0"
         sodipodi:role="line"
         id="tspan13">80%</tspan></text>
    <text
       id="text14"
       xml:space="preserve"
       transform="matrix(1.3333333,0,0,1.3333333,30.433333,31.972917)"><tspan
         style="font-variant:normal;font-weight:normal;font-size:11px;font-family:'DejaVu Sans';writing-mode:lr-tb;fill:#262626;fill-opacity:1;fill-rule:nonzero;stroke:none"
         x="0 6.9959998 13.992 20.988001"
         y="0"
         sodipodi:role="line"
         id="tspan14">100%</tspan></text>
    <text
       id="text15"
       xml:space="preserve"
       transform="matrix(0,-1.3333333,1.3333333,0,21.766667,306.69167)"><tspan
         style="font-variant:normal;font-weight:normal;font-size:12px;font-family:'DejaVu Sans';writing-mode:lr-tb;fill:#262626;fill-opacity:1;fill-rule:nonzero;stroke:none"
         x="0 8.3760004 15.984 27.672001 35.279999 38.616001 45.972 50.675999 54.012001 61.116001 68.496002 72.311996 78.564003 86.171997 93.528 98.209999 105.59 109.406 116.75 120.974 124.79 128.12601 139.814 147.17 154.78999 162.17"
         y="0"
         sodipodi:role="line"
         id="tspan15">Cumulative share of images</tspan></text>
    <path
       id="path15"
       d="m 76.459943,55.565625 30.139047,1.599812 27.4917,1.740675 21.68789,1.718037 17.20777,1.640561 11.91307,1.347263 10.99667,1.414676 9.67301,1.449389 8.75661,1.496176 8.45116,1.655654 8.75661,1.928326 7.63658,1.923799 6.82202,1.967064 6.21108,2.046048 4.68377,1.758283 4.48013,1.931345 4.68377,2.226153 4.88742,2.584853 4.3783,2.590889 4.07285,2.662328 3.66556,2.664844 3.76738,3.058256 3.36009,3.095484 3.25828,3.30024 2.64735,2.97776 2.74917,3.46525 1.9346,2.7378 2.44371,3.90494 2.54552,4.51218 2.13825,4.21485 2.13824,4.73504 2.13824,5.36641 2.24007,6.2614 2.13824,6.61758 2.03642,7.07439 1.4255,5.77441 1.42549,6.93655 1.22186,6.80221 1.01821,6.9622 1.12003,9.02586 1.42549,13.89522 0.9164,10.78866 0.81456,12.30195 0.71275,14.37114 0.81457,24.37398 0.40729,18.99047 0.20364,22.10959 v 0"
       style="fill:none;stroke:#ff0000;stroke-width:1.5;stroke-linecap:round;stroke-linejoin:round;stroke-miterlimit:10;stroke-dasharray:none;stroke-opacity:1"
       transform="matrix(1.3333333,0,0,-1.3333333,0,436.4875)"
       clip-path="url(#clipPath16)" />
    <path
       id="path17"
       d="m 76.459943,55.565625 41.529727,0.692258 22.28997,0.579488 21.35144,0.783626 16.42419,0.802559 12.20082,0.794326 11.2623,0.940023 11.49693,1.19931 8.91599,1.173793 7.97746,1.315372 5.39652,1.095595 5.39652,1.26763 5.39652,1.494817 5.16188,1.613347 5.63115,2.05208 4.69263,1.962358 5.39651,2.52456 4.92726,2.596173 4.22336,2.494104 2.81558,1.911324 3.0502,2.319599 3.05021,2.556662 2.34631,2.225762 4.22336,4.402958 3.05021,3.466228 2.11168,2.688363 2.34631,3.28103 2.11168,3.28019 1.87705,3.47035 1.87705,3.97493 1.87705,4.38896 1.40779,3.80701 2.11168,6.31592 2.34632,7.79429 1.64241,6.4254 1.40779,6.16859 1.40779,6.69374 1.40779,8.07662 1.17315,7.64612 1.64242,12.02026 1.87705,15.31281 1.40779,13.89784 1.17316,13.47557 1.17315,15.60915 0.93853,15.10291 0.93852,19.23012 0.93853,23.65777 0.23463,7.4181 v 0"
       style="fill:none;stroke:#0000ff;stroke-width:1.5;stroke-linecap:butt;stroke-linejoin:round;stroke-miterlimit:10;stroke-dasharray:5.55, 2.4;stroke-dashoffset:0;stroke-opacity:1"
       transform="matrix(1.3333333,0,0,-1.3333333,0,436.4875)"
       clip-path="url(#clipPath18)" />
    <path
       id="path19"
       d="M 279.36903,42.965625 V 320.16563"
       style="fill:none;stroke:#cfcfcf;stroke-width:1;stroke-linecap:butt;stroke-linejoin:round;stroke-miterlimit:10;stroke-dasharray:3.7, 1.6;stroke-dashoffset:0;stroke-opacity:0.75"
       transform="matrix(1.3333333,0,0,-1.3333333,0,436.4875)"
       clip-path="url(#clipPath20)" />
    <path
       id="path21"
       d="M 63.778125,91.246956 H 342.77812"
       style="fill:none;stroke:#cfcfcf;stroke-width:1;stroke-linecap:butt;stroke-linejoin:round;stroke-miterlimit:10;stroke-dasharray:3.7, 1.6;stroke-dashoffset:0;stroke-opacity:0.75"
       transform="matrix(1.3333333,0,0,-1.3333333,0,436.4875)"
       clip-path="url(#clipPath22)" />
    <path
       id="path23"
       d="M 279.36903,42.965625 V 320.16563"
       style="fill:none;stroke:#cfcfcf;stroke-width:1;stroke-linecap:butt;stroke-linejoin:round;stroke-miterlimit:10;stroke-dasharray:3.7, 1.6;stroke-dashoffset:0;stroke-opacity:0.75"
       transform="matrix(1.3333333,0,0,-1.3333333,0,436.4875)"
       clip-path="url(#clipPath24)" />
    <path
       id="path25"
       d="M 63.778125,83.195854 H 342.77812"
       style="fill:none;stroke:#cfcfcf;stroke-width:1;stroke-linecap:butt;stroke-linejoin:round;stroke-miterlimit:10;stroke-dasharray:3.7, 1.6;stroke-dashoffset:0;stroke-opacity:0.75"
       transform="matrix(1.3333333,0,0,-1.3333333,0,436.4875)"
       clip-path="url(#clipPath26)" />
    <path
       id="path27"
       d="M 63.778125,42.965625 V 320.16563"
       style="fill:none;stroke:#262626;stroke-width:1.25;stroke-linecap:square;stroke-linejoin:miter;stroke-miterlimit:10;stroke-dasharray:none;stroke-opacity:1"
       transform="matrix(1.3333333,0,0,-1.3333333,0,436.4875)" />
    <path
       id="path28"
       d="M 342.77812,42.965625 V 320.16563"
       style="fill:none;stroke:#262626;stroke-width:1.25;stroke-linecap:square;stroke-linejoin:miter;stroke-miterlimit:10;stroke-dasharray:none;stroke-opacity:1"
       transform="matrix(1.3333333,0,0,-1.3333333,0,436.4875)" />
    <path
       id="path29"
       d="M 63.778125,42.965625 H 342.77812"
       style="fill:none;stroke:#262626;stroke-width:1.25;stroke-linecap:square;stroke-linejoin:miter;stroke-miterlimit:10;stroke-dasharray:none;stroke-opacity:1"
       transform="matrix(1.3333333,0,0,-1.3333333,0,436.4875)" />
    <path
       id="path30"
       d="M 63.778125,320.16563 H 342.77812"
       style="fill:none;stroke:#262626;stroke-width:1.25;stroke-linecap:square;stroke-linejoin:miter;stroke-miterlimit:10;stroke-dasharray:none;stroke-opacity:1"
       transform="matrix(1.3333333,0,0,-1.3333333,0,436.4875)" />
    <text
       id="text30"
       xml:space="preserve"
       transform="matrix(1.3333333,0,0,1.3333333,336.91338,311.49156)"><tspan
         style="font-variant:normal;font-weight:normal;font-size:12px;font-family:'DejaVu Sans';writing-mode:lr-tb;fill:#ff0000;fill-opacity:1;fill-rule:nonzero;stroke:none"
         x="0 7.632 15.264"
         y="0"
         sodipodi:role="line"
         id="tspan30">14%</tspan></text>
    <text
       id="text31"
       xml:space="preserve"
       transform="matrix(1.3333333,0,0,1.3333333,377.58005,337.72636)"><tspan
         style="font-variant:normal;font-weight:normal;font-size:12px;font-family:'DejaVu Sans';writing-mode:lr-tb;fill:#0000ff;fill-opacity:1;fill-rule:nonzero;stroke:none"
         x="0 7.632 15.264"
         y="0"
         sodipodi:role="line"
         id="tspan31">11%</tspan></text>
    <path
       id="path31"
       d="M 71.478125,279.08437 H 221.02151 c 1.46667,0 2.2,0.73334 2.2,2.2 v 31.18125 c 0,1.46667 -0.73333,2.20001 -2.2,2.20001 H 71.478125 c -1.466667,0 -2.2,-0.73334 -2.2,-2.20001 v -31.18125 c 0,-1.46666 0.733333,-2.2 2.2,-2.2 z"
       style="fill:#ffffff;fill-opacity:0.8;fill-rule:nonzero;stroke:#cccccc;stroke-width:1;stroke-linecap:butt;stroke-linejoin:miter;stroke-miterlimit:10;stroke-dasharray:none;stroke-opacity:0.8"
       transform="matrix(1.3333333,0,0,-1.3333333,0,436.4875)"
       sodipodi:nodetypes="sssssssss" />
    <path
       id="path32"
       d="m 73.678125,305.75625 h 11 11"
       style="fill:none;stroke:#ff0000;stroke-width:1.5;stroke-linecap:round;stroke-linejoin:round;stroke-miterlimit:10;stroke-dasharray:none;stroke-opacity:1"
       transform="matrix(1.3333333,0,0,-1.3333333,0,436.4875)" />
    <text
       id="text32"
       xml:space="preserve"
       style="font-size:16px;opacity:0.291245;stroke-width:1.33333"
       x="139.30417"
       y="-26.054167"><tspan
         style="font-variant:normal;font-weight:normal;font-size:14.6667px;font-family:'DejaVu Sans';writing-mode:lr-tb;opacity:1;fill:#262626;fill-opacity:1;fill-rule:nonzero;stroke:none;stroke-width:1.33333"
         x="139.30417 143.3815 154.35217 163.34283 169.09216 178.39084 184.41884 193.4095 197.48683 201.56416 209.20551 214.95483 220.2495 229.5775 238.9055 248.23351"
         sodipodi:role="line"
         id="tspan32"
         y="-26.054167">iNaturalist-500k</tspan></text>
    <path
       id="path33"
       d="m 73.678125,289.61563 h 11 11"
       style="fill:none;stroke:#0000ff;stroke-width:1.5;stroke-linecap:butt;stroke-linejoin:round;stroke-miterlimit:10;stroke-dasharray:5.55, 2.4;stroke-dashoffset:0;stroke-opacity:1"
       transform="matrix(1.3333333,0,0,-1.3333333,0,436.4875)" />
    <text
       id="text33"
       xml:space="preserve"
       transform="matrix(1.3333333,0,0,1.3333333,139.30417,55.466667)"><tspan
         style="font-variant:normal;font-weight:normal;font-size:11px;font-family:'DejaVu Sans';writing-mode:lr-tb;fill:#262626;fill-opacity:1;fill-rule:nonzero;stroke:none"
         x="0 6.6329999 9.691 20.691 27.665001 31.976999 40.205002 46.970001 51.282001 55.252998 62.249001 69.245003 76.240997"
         y="0"
         sodipodi:role="line"
         id="tspan33">Pl@ntNet-300k</tspan></text>
    <text
       xml:space="preserve"
       style="font-size:14.6667px;letter-spacing:0px;fill:#030101;fill-opacity:1;stroke:none;stroke-width:3.77953;stroke-linecap:round;stroke-linejoin:round"
       x="139.70039"
       y="33.484444"
       id="text34"><tspan
         sodipodi:role="line"
         id="tspan34"
         x="139.70039"
         y="33.484444"
         style="font-style:normal;font-variant:normal;font-weight:normal;font-stretch:normal;font-size:14.6667px;font-family:'DejaVu Sans';-inkscape-font-specification:'DejaVu Sans';letter-spacing:0px">plantNaturalist-500k</tspan></text>
    <path
       id="path3"
       d="M 95.304164,-15.624984 H 259.69582 c 1.95556,0 2.93333,-0.977787 2.93333,-2.933333 v -41.574999 c 0,-1.95556 -0.97777,-2.933347 -2.93333,-2.933347 H 95.304164 c -1.955556,0 -2.933333,0.977787 -2.933333,2.933347 v 41.574999 c 0,1.955546 0.977777,2.933333 2.933333,2.933333 z"
       style="fill:#47ab54;fill-opacity:0.8;fill-rule:nonzero;stroke:#cccccc;stroke-width:1.33333;stroke-linecap:butt;stroke-linejoin:miter;stroke-miterlimit:10;stroke-dasharray:none;stroke-opacity:0.8" />
  </g>
</svg>
