<?xml version="1.0" encoding="UTF-8" standalone="no"?>
<!DOCTYPE svg PUBLIC "-//W3C//DTD SVG 1.0//EN" "http://www.w3.org/TR/2001/PR-SVG-20010719/DTD/svg10.dtd">
<svg width="45cm" height="20cm" viewBox="-55 784 898 395" xmlns="http://www.w3.org/2000/svg" xmlns:xlink="http://www.w3.org/1999/xlink">
  <text font-size="17.8929" style="fill: #000000;text-anchor:start;font-family:sans-serif;font-style:normal;font-weight:normal" x="621.718" y="1161.85">
    <tspan x="621.718" y="1161.85"></tspan>
  </text>
  <g>
    <rect style="fill: #ffffff" x="376.348" y="985.882" width="203.3" height="46.3661"/>
    <rect style="fill: none; fill-opacity:0; stroke-width: 4; stroke: #c6a600" x="376.348" y="985.882" width="203.3" height="46.3661"/>
    <text font-size="17.8929" style="fill: #000000;text-anchor:middle;font-family:sans-serif;font-style:normal;font-weight:normal" x="477.998" y="1014.48">
      <tspan x="477.998" y="1014.48">Encyclopedia of Life</tspan>
    </text>
  </g>
  <g>
    <rect style="fill: #daffd3" x="419.14" y="784.046" width="165.964" height="87.0983"/>
    <rect style="fill: none; fill-opacity:0; stroke-width: 2.35099e-037; stroke: #000000" x="419.14" y="784.046" width="165.964" height="87.0983"/>
    <text font-size="17.8929" style="fill: #000000;text-anchor:middle;font-family:sans-serif;font-style:normal;font-weight:normal" x="502.122" y="810.646">
      <tspan x="502.122" y="810.646">iNaturalist </tspan>
      <tspan x="502.122" y="833.012">research-grade</tspan>
      <tspan x="502.122" y="855.378">observations</tspan>
    </text>
  </g>
  <g>
    <rect style="fill: #ffffff" x="224.688" y="856.142" width="166" height="46.3661"/>
    <rect style="fill: none; fill-opacity:0; stroke-width: 4; stroke: #005202" x="224.688" y="856.142" width="166" height="46.3661"/>
    <text font-size="17.8929" style="fill: #000000;text-anchor:middle;font-family:sans-serif;font-style:normal;font-weight:normal" x="307.688" y="884.742">
      <tspan x="307.688" y="884.742">Pl@ntNet</tspan>
    </text>
  </g>
  <g>
    <rect style="fill: #daffd3" x="223.628" y="786.904" width="166" height="43"/>
    <rect style="fill: none; fill-opacity:0; stroke-width: 2.35099e-037; stroke: #000000" x="223.628" y="786.904" width="166" height="43"/>
    <text font-size="17.8929" style="fill: #000000;text-anchor:middle;font-family:sans-serif;font-style:normal;font-weight:normal" x="306.628" y="813.821">
      <tspan x="306.628" y="813.821">Pl@ntNet-300k</tspan>
    </text>
  </g>
  <g>
    <rect style="fill: #ffffff" x="607.852" y="984.726" width="166" height="46.3661"/>
    <rect style="fill: none; fill-opacity:0; stroke-width: 4; stroke: #009271" x="607.852" y="984.726" width="166" height="46.3661"/>
    <text font-size="17.8929" style="fill: #000000;text-anchor:middle;font-family:sans-serif;font-style:normal;font-weight:normal" x="690.852" y="1013.33">
      <tspan x="690.852" y="1013.33">iNaturalist</tspan>
    </text>
  </g>
  <g>
    <rect style="fill: #ffffff" x="360.514" y="1064.83" width="163.348" height="46.3661"/>
    <rect style="fill: none; fill-opacity:0; stroke-width: 4; stroke: #000000" x="360.514" y="1064.83" width="163.348" height="46.3661"/>
    <text font-size="17.8929" style="fill: #000000;text-anchor:middle;font-family:sans-serif;font-style:normal;font-weight:normal" x="442.188" y="1093.43">
      <tspan x="442.188" y="1093.43">GBIF</tspan>
    </text>
  </g>
  <g>
    <line style="fill: none; fill-opacity:0; stroke-width: 2.6; stroke: #009271" x1="547.703" y1="871.144" x2="656.96" y2="975.528"/>
    <polygon style="fill: #009271" points="662.383,980.709 651.698,977.417 656.96,975.528 658.606,970.186 "/>
    <polygon style="fill: none; fill-opacity:0; stroke-width: 2.6; stroke: #009271" points="662.383,980.709 651.698,977.417 656.96,975.528 658.606,970.186 "/>
  </g>
  <g>
    <line style="fill: none; fill-opacity:0; stroke-width: 2.6; stroke: #009271" x1="520.138" y1="1062.9" x2="602.996" y2="1036.21"/>
    <polygon style="fill: #009271" points="610.135,1033.91 602.15,1041.74 602.996,1036.21 599.083,1032.22 "/>
    <polygon style="fill: none; fill-opacity:0; stroke-width: 2.6; stroke: #009271" points="610.135,1033.91 602.15,1041.74 602.996,1036.21 599.083,1032.22 "/>
  </g>
  <g>
    <line style="fill: none; fill-opacity:0; stroke-width: 2.6; stroke: #005202" x1="360.514" y1="1064.83" x2="317.711" y2="914.521"/>
    <polygon style="fill: #005202" points="315.656,907.308 323.204,915.556 317.711,914.521 313.586,918.295 "/>
    <polygon style="fill: none; fill-opacity:0; stroke-width: 2.6; stroke: #005202" points="315.656,907.308 323.204,915.556 317.711,914.521 313.586,918.295 "/>
  </g>
  <g>
    <line style="fill: none; fill-opacity:0; stroke-width: 2.6; stroke: #005202" x1="306.949" y1="829.892" x2="307.156" y2="843.735"/>
    <polygon style="fill: #005202" points="307.268,851.234 302.119,841.31 307.156,843.735 312.118,841.161 "/>
    <polygon style="fill: none; fill-opacity:0; stroke-width: 2.6; stroke: #005202" points="307.268,851.234 302.119,841.31 307.156,843.735 312.118,841.161 "/>
  </g>
  <g>
    <rect style="fill: #daffd3" x="-34.4568" y="794.496" width="166" height="43"/>
    <rect style="fill: none; fill-opacity:0; stroke-width: 2.35099e-037; stroke: #000000" x="-34.4568" y="794.496" width="166" height="43"/>
    <text font-size="17.8929" style="fill: #000000;text-anchor:middle;font-family:sans-serif;font-style:normal;font-weight:normal" x="48.5432" y="821.413">
      <tspan x="48.5432" y="821.413">PlantCLEF 2016</tspan>
    </text>
  </g>
  <g>
    <rect style="fill: #daffd3" x="-34.4568" y="1078.07" width="166" height="43"/>
    <rect style="fill: none; fill-opacity:0; stroke-width: 2.35099e-037; stroke: #000000" x="-34.4568" y="1078.07" width="166" height="43"/>
    <text font-size="17.8929" style="fill: #000000;text-anchor:middle;font-family:sans-serif;font-style:normal;font-weight:normal" x="48.5432" y="1104.99">
      <tspan x="48.5432" y="1104.99">PlantCLEF 2020</tspan>
    </text>
  </g>
  <g>
    <rect style="fill: #daffd3" x="-33.4568" y="852.212" width="166" height="43"/>
    <rect style="fill: none; fill-opacity:0; stroke-width: 2.35099e-037; stroke: #000000" x="-33.4568" y="852.212" width="166" height="43"/>
    <text font-size="17.8929" style="fill: #000000;text-anchor:middle;font-family:sans-serif;font-style:normal;font-weight:normal" x="49.5432" y="879.129">
      <tspan x="49.5432" y="879.129">PlantCLEF 2019</tspan>
    </text>
  </g>
  <g>
    <rect style="fill: #daffd3" x="-54.5318" y="910.928" width="206.15" height="43"/>
    <rect style="fill: none; fill-opacity:0; stroke-width: 2.35099e-037; stroke: #000000" x="-54.5318" y="910.928" width="206.15" height="43"/>
    <text font-size="17.8929" style="fill: #000000;text-anchor:middle;font-family:sans-serif;font-style:normal;font-weight:normal" x="48.5432" y="937.845">
      <tspan x="48.5432" y="937.845">ExpertLifeCLEF 2018</tspan>
    </text>
  </g>
  <g>
    <rect style="fill: #daffd3" x="-34.4568" y="968.642" width="166" height="43"/>
    <rect style="fill: none; fill-opacity:0; stroke-width: 2.35099e-037; stroke: #000000" x="-34.4568" y="968.642" width="166" height="43"/>
    <text font-size="17.8929" style="fill: #000000;text-anchor:middle;font-family:sans-serif;font-style:normal;font-weight:normal" x="48.5432" y="995.559">
      <tspan x="48.5432" y="995.559">PlantCLEF 2017</tspan>
    </text>
  </g>
  <g>
    <line style="fill: none; fill-opacity:0; stroke-width: 2.6; stroke: #c6a600" x1="131.543" y1="1088.82" x2="364.22" y2="1035.26"/>
    <polygon style="fill: #c6a600" points="371.529,1033.58 362.906,1040.69 364.22,1035.26 360.662,1030.95 "/>
    <polygon style="fill: none; fill-opacity:0; stroke-width: 2.6; stroke: #c6a600" points="371.529,1033.58 362.906,1040.69 364.22,1035.26 360.662,1030.95 "/>
  </g>
  <g>
    <line style="fill: none; fill-opacity:0; stroke-width: 2.6; stroke: #005202" x1="131.543" y1="1099.57" x2="281.051" y2="912.631"/>
    <polygon style="fill: #005202" points="285.736,906.774 283.395,917.706 281.051,912.631 275.585,911.461 "/>
    <polygon style="fill: none; fill-opacity:0; stroke-width: 2.6; stroke: #005202" points="285.736,906.774 283.395,917.706 281.051,912.631 275.585,911.461 "/>
  </g>
  <g>
    <line style="fill: none; fill-opacity:0; stroke-width: 2.6; stroke: #005202" x1="131.543" y1="805.246" x2="216.543" y2="872.846"/>
    <polygon style="fill: #005202" points="222.413,877.515 211.474,875.203 216.543,872.846 217.699,867.377 "/>
    <polygon style="fill: none; fill-opacity:0; stroke-width: 2.6; stroke: #005202" points="222.413,877.515 211.474,875.203 216.543,872.846 217.699,867.377 "/>
  </g>
  <g>
    <line style="fill: none; fill-opacity:0; stroke-width: 2.6; stroke: #c6a600" x1="131.543" y1="990.142" x2="363.97" y2="1002.84"/>
    <polygon style="fill: #c6a600" points="371.459,1003.25 361.201,1007.69 363.97,1002.84 361.747,997.708 "/>
    <polygon style="fill: none; fill-opacity:0; stroke-width: 2.6; stroke: #c6a600" points="371.459,1003.25 361.201,1007.69 363.97,1002.84 361.747,997.708 "/>
  </g>
  <g>
    <line style="fill: none; fill-opacity:0; stroke-width: 2.6; stroke: #005202" x1="131.543" y1="990.142" x2="258.864" y2="910.041"/>
    <polygon style="fill: #005202" points="265.212,906.048 259.41,915.605 258.864,910.041 254.085,907.141 "/>
    <polygon style="fill: none; fill-opacity:0; stroke-width: 2.6; stroke: #005202" points="265.212,906.048 259.41,915.605 258.864,910.041 254.085,907.141 "/>
  </g>
  <g>
    <line style="fill: none; fill-opacity:0; stroke-width: 2.6; stroke: #c6a600" x1="132.543" y1="873.712" x2="366.894" y2="981.532"/>
    <polygon style="fill: #c6a600" points="373.707,984.667 362.533,985.03 366.894,981.532 366.712,975.945 "/>
    <polygon style="fill: none; fill-opacity:0; stroke-width: 2.6; stroke: #c6a600" points="373.707,984.667 362.533,985.03 366.894,981.532 366.712,975.945 "/>
  </g>
  <g>
    <line style="fill: none; fill-opacity:0; stroke-width: 2.6; stroke: #c6a600" x1="151.618" y1="932.428" x2="364.239" y2="982.353"/>
    <polygon style="fill: #c6a600" points="371.541,984.068 360.663,986.65 364.239,982.353 362.949,976.914 "/>
    <polygon style="fill: none; fill-opacity:0; stroke-width: 2.6; stroke: #c6a600" points="371.541,984.068 360.663,986.65 364.239,982.353 362.949,976.914 "/>
  </g>
  <g>
    <rect style="fill: #ffd3d3" x="-34.4568" y="1023.36" width="166" height="43"/>
    <rect style="fill: none; fill-opacity:0; stroke-width: 2.35099e-037; stroke: #000000" x="-34.4568" y="1023.36" width="166" height="43"/>
    <text font-size="17.8929" style="fill: #000000;text-anchor:middle;font-family:sans-serif;font-style:normal;font-weight:normal" x="48.5432" y="1050.27">
      <tspan x="48.5432" y="1050.27">PlantCLEF 2021</tspan>
    </text>
  </g>
  <g>
    <rect style="fill: #ffd3d3" x="-33.2306" y="1132.69" width="163.548" height="42.3661"/>
    <rect style="fill: none; fill-opacity:0; stroke-width: 2.35099e-037; stroke: #000000" x="-33.2306" y="1132.69" width="163.548" height="42.3661"/>
    <text font-size="17.8929" style="fill: #000000;text-anchor:middle;font-family:sans-serif;font-style:normal;font-weight:normal" x="48.5432" y="1159.29">
      <tspan x="48.5432" y="1159.29">PlantCLEF 2022</tspan>
    </text>
  </g>
  <g>
    <line style="fill: none; fill-opacity:0; stroke-width: 2.6; stroke: #005202" x1="131.543" y1="1034.11" x2="271.219" y2="911.371"/>
    <polygon style="fill: #005202" points="276.853,906.421 272.641,916.777 271.219,911.371 266.041,909.266 "/>
    <polygon style="fill: none; fill-opacity:0; stroke-width: 2.6; stroke: #005202" points="276.853,906.421 272.641,916.777 271.219,911.371 266.041,909.266 "/>
  </g>
  <g>
    <line style="fill: none; fill-opacity:0; stroke-width: 2.6; stroke: #c6a600" x1="131.543" y1="1044.86" x2="364.01" y2="1020.84"/>
    <polygon style="fill: #c6a600" points="371.47,1020.07 362.037,1026.07 364.01,1020.84 361.009,1016.12 "/>
    <polygon style="fill: none; fill-opacity:0; stroke-width: 2.6; stroke: #c6a600" points="371.47,1020.07 362.037,1026.07 364.01,1020.84 361.009,1016.12 "/>
  </g>
  <g>
    <line style="fill: none; fill-opacity:0; stroke-width: 2.6; stroke: #000000" x1="130.317" y1="1153.87" x2="348.366" y2="1107.83"/>
    <polygon style="fill: #000000" points="355.704,1106.28 346.953,1113.24 348.366,1107.83 344.886,1103.45 "/>
    <polygon style="fill: none; fill-opacity:0; stroke-width: 2.6; stroke: #000000" points="355.704,1106.28 346.953,1113.24 348.366,1107.83 344.886,1103.45 "/>
  </g>
  <g>
    <line style="fill: none; fill-opacity:0; stroke-width: 2.6; stroke: #c6a600" x1="130.317" y1="1143.28" x2="403.057" y2="1038"/>
    <polygon style="fill: #c6a600" points="410.054,1035.29 402.525,1043.56 403.057,1038 398.924,1034.23 "/>
    <polygon style="fill: none; fill-opacity:0; stroke-width: 2.6; stroke: #c6a600" points="410.054,1035.29 402.525,1043.56 403.057,1038 398.924,1034.23 "/>
  </g>
  <g>
    <line style="fill: none; fill-opacity:0; stroke-width: 2.6; stroke: #009271" x1="581.651" y1="1008.5" x2="595.532" y2="1008.43"/>
    <polygon style="fill: #009271" points="603.032,1008.39 593.06,1013.44 595.532,1008.43 593.005,1003.44 "/>
    <polygon style="fill: none; fill-opacity:0; stroke-width: 2.6; stroke: #009271" points="603.032,1008.39 593.06,1013.44 595.532,1008.43 593.005,1003.44 "/>
  </g>
  <g>
    <rect style="fill: #ffffff" x="360.762" y="1130.65" width="166" height="46.3661"/>
    <rect style="fill: none; fill-opacity:0; stroke-width: 4; stroke: #800076" x="360.762" y="1130.65" width="166" height="46.3661"/>
    <text font-size="17.8929" style="fill: #000000;text-anchor:middle;font-family:sans-serif;font-style:normal;font-weight:normal" x="443.762" y="1159.25">
      <tspan x="443.762" y="1159.25">iDigBio</tspan>
    </text>
  </g>
  <g>
    <line style="fill: none; fill-opacity:0; stroke-width: 2.6; stroke: #800076" x1="131.543" y1="1110.32" x2="348.454" y2="1140.55"/>
    <polygon style="fill: #800076" points="355.882,1141.59 345.288,1145.16 348.454,1140.55 346.668,1135.26 "/>
    <polygon style="fill: none; fill-opacity:0; stroke-width: 2.6; stroke: #800076" points="355.882,1141.59 345.288,1145.16 348.454,1140.55 346.668,1135.26 "/>
  </g>
  <g>
    <line style="fill: none; fill-opacity:0; stroke-width: 2.6; stroke: #800076" x1="131.543" y1="1055.61" x2="353.779" y2="1125.53"/>
    <polygon style="fill: #800076" points="360.933,1127.78 349.894,1129.55 353.779,1125.53 352.895,1120.01 "/>
    <polygon style="fill: none; fill-opacity:0; stroke-width: 2.6; stroke: #800076" points="360.933,1127.78 349.894,1129.55 353.779,1125.53 352.895,1120.01 "/>
  </g>
  <g>
    <rect style="fill: #daffd3" x="612.944" y="806.904" width="229.9" height="43"/>
    <rect style="fill: none; fill-opacity:0; stroke-width: 2.35099e-037; stroke: #000000" x="612.944" y="806.904" width="229.9" height="43"/>
    <text font-size="17.8929" style="fill: #000000;text-anchor:middle;font-family:sans-serif;font-style:normal;font-weight:700" x="727.894" y="833.821">
      <tspan x="727.894" y="833.821">plantNaturalist-500k</tspan>
    </text>
  </g>
  <g>
    <line style="fill: none; fill-opacity:0; stroke-width: 2; stroke: #009271" x1="612.955" y1="827.992" x2="594.827" y2="827.927"/>
    <polygon style="fill: #009271" points="587.328,827.9 597.345,822.936 594.827,827.927 597.31,832.936 "/>
    <polygon style="fill: none; fill-opacity:0; stroke-width: 2; stroke: #009271" points="587.328,827.9 597.345,822.936 594.827,827.927 597.31,832.936 "/>
  </g>
</svg>
